<?xml version="1.0" encoding="utf-8"?>
<!-- Generator: Adobe Illustrator 15.0.2, SVG Export Plug-In  -->
<!DOCTYPE svg PUBLIC "-//W3C//DTD SVG 1.1//EN" "http://www.w3.org/Graphics/SVG/1.1/DTD/svg11.dtd" [
	<!ENTITY ns_flows "http://ns.adobe.com/Flows/1.0/">
]>
<svg version="1.1"
	 xmlns="http://www.w3.org/2000/svg" xmlns:xlink="http://www.w3.org/1999/xlink" xmlns:a="http://ns.adobe.com/AdobeSVGViewerExtensions/3.0/"
	 x="0px" y="0px" width="496px" height="90px" viewBox="-20.358 -17.681 496 90"
	 overflow="visible" enable-background="new -20.358 -17.681 496 90" xml:space="preserve">
<defs>
</defs>
<g>
	<g>
		<path d="M85.971,32.857c-0.482,0-0.967,0.417-1.244,1.108l-1.525,3.601c-0.967,2.217-1.799,4.293-1.799,5.609
			c0,2.146,3.877,1.035,3.877,2.353c0,0.484-0.275,0.761-1.246,0.761c-1.037,0-1.66-0.276-4.914-0.276
			c-3.256,0-3.949,0.276-4.711,0.276c-0.553,0-0.76-0.209-0.76-0.553c0-1.384,3.254-0.624,4.5-3.395L90.543,15.13
			c0.275-0.623,0.691-0.828,1.037-0.828c0.348,0,0.623,0.275,0.832,0.828l10.662,27.423c1.387,3.251,4.084,1.87,4.084,3.046
			c0,0.623-0.344,0.69-1.523,0.69c-1.451,0-2.975-0.276-5.328-0.276c-3.326,0-5.125,0.276-5.957,0.276
			c-0.828,0-1.037-0.209-1.037-0.623c0-1.455,4.152-0.415,4.152-2.008c0-1.246-0.484-2.77-2.283-8.103l-0.484-1.522
			c-0.277-0.759-0.762-1.176-1.385-1.176H85.971z M92.48,30.364c0.416,0,0.555,0,0.555-0.206c0-0.347-0.139-0.97-0.693-2.563
			l-2.008-5.815c-0.068-0.275-0.207-0.553-0.414-0.553c-0.209,0-0.416,0.207-0.553,0.482l-2.355,6.023
			c-0.623,1.386-0.898,2.149-0.898,2.493c0,0.068,0.066,0.139,0.275,0.139H92.48z"/>
		<path d="M154.104,27.804c0,0.762,6.096,2.146,6.096,8.584c0,6.165-5.539,9.625-16.758,9.625c-5.539,0-9.693,0.276-11.078,0.276
			c-1.039,0-1.521-0.276-1.521-0.761c0-0.83,1.242-0.83,2.836-1.039c1.18-0.137,2.01-0.831,2.01-2.284V20.947
			c0-2.146-0.139-3.324-1.453-3.807c-1.941-0.764-3.254-0.346-3.254-1.107c0-0.557,0.205-0.903,1.037-0.903
			c1.869,0,4.086,0.212,6.785,0.07c3.115-0.138,5.471-0.347,9.209-0.347c5.4,0,9.693,2.91,9.693,7.479
			C157.705,26.211,154.104,27.523,154.104,27.804z M140.811,27.389c0,0.829,0.623,0.899,4.43,0.899c5.609,0,7.756-2.492,7.756-5.817
			c0-4.431-2.561-6.094-8.309-6.094c-3.463,0-3.877,0.279-3.877,0.969V27.389z M140.811,42.553c0,1.247,1.246,1.937,4.986,1.937
			c6.508,0,9.277-3.601,9.277-7.407c0-4.639-3.463-7.271-9.555-7.271c-4.361,0-4.709,0.139-4.709,1.385V42.553z"/>
		<path d="M182.977,14.302c9.691,0,17.029,6.925,17.029,16.409c0,9.349-7.338,16.41-17.447,16.41
			c-9.969,0-17.172-7.062-17.172-16.41C165.387,21.227,172.59,14.302,182.977,14.302z M182.559,45.321
			c7.754,0,11.633-5.262,11.633-14.61c0-9.484-4.986-14.611-11.215-14.611c-6.371,0-11.494,5.127-11.494,14.611
			C171.482,40.06,175.359,45.321,182.559,45.321z"/>
		<path d="M223.205,14.302c9.69,0,17.029,6.925,17.029,16.409c0,9.349-7.339,16.41-17.447,16.41c-9.969,0-17.172-7.062-17.172-16.41
			C205.615,21.227,212.818,14.302,223.205,14.302z M222.787,45.321c7.758,0,11.632-5.262,11.632-14.61
			c0-9.484-4.985-14.611-11.214-14.611c-6.371,0-11.494,5.127-11.494,14.611C211.711,40.06,215.588,45.321,222.787,45.321z"/>
		<path d="M253.874,28.288c0,0.553,0.142,0.83,0.348,0.83c0.141,0,0.558-0.348,1.11-0.83l9.35-7.825
			c1.381-1.177,2.769-2.217,2.769-2.84s-0.765-0.691-1.593-0.691c-1.176-0.066-2.563,0.068-2.563-0.898
			c0-0.485,0.482-0.903,1.452-0.903c1.594,0,3.257,0.279,5.609,0.279c2.839,0,4.292-0.279,5.262-0.279
			c0.828,0,1.246,0.212,1.246,0.835c0,0.553-0.828,0.691-1.939,0.9c-1.452,0.275-2.699,0.898-3.67,1.59l-11.835,8.863
			c-0.211,0.205-0.418,0.348-0.418,0.553c0,0.276,0.207,0.347,0.418,0.553l13.358,12.395c3.951,3.671,6.161,3.948,6.161,4.848
			c0,0.693-0.552,0.623-1.311,0.623c-1.388,0-3.393-0.276-5.956-0.276c-3.464,0-4.986,0.276-6.027,0.276
			c-0.552,0-0.963-0.276-0.963-0.761c0-1.8,3.526-0.277,3.526-1.729c0-0.624-0.828-1.526-2.698-3.258l-9.83-8.86
			c-0.277-0.277-0.764-0.765-1.041-0.765c-0.417,0-0.765,0.347-0.765,0.831v9.07c0,3.534,1.183,3.604,2.841,3.81
			c1.317,0.139,1.869,0.418,1.869,0.9c0,0.552-0.276,0.761-1.317,0.761c-1.587,0-3.598-0.276-5.879-0.276
			c-2.288,0-4.504,0.276-6.233,0.276c-0.693,0-0.969-0.276-0.969-0.761c0-0.623,0.346-0.9,1.939-1.039
			c1.935-0.137,2.628-0.97,2.628-2.491V19.425c0-1.802-0.623-2.425-2.628-2.56c-1.316-0.07-1.594-0.348-1.594-0.832
			c0-0.624,0.348-0.903,1.312-0.903c1.04,0,2.356,0.279,5.885,0.279c3.258,0,4.363-0.279,5.403-0.279
			c0.693,0,1.041,0.347,1.041,0.835c0,0.691-0.836,0.967-2.358,0.967c-1.316,0-1.94,0.556-1.94,2.632V28.288z"/>
		<path d="M313.282,32.857c-0.482,0-0.97,0.417-1.247,1.108l-1.522,3.601c-0.971,2.217-1.799,4.293-1.799,5.609
			c0,2.146,3.874,1.035,3.874,2.353c0,0.484-0.275,0.761-1.246,0.761c-1.035,0-1.657-0.276-4.916-0.276
			c-3.251,0-3.945,0.276-4.709,0.276c-0.553,0-0.758-0.209-0.758-0.553c0-1.384,3.251-0.624,4.497-3.395L317.85,15.13
			c0.277-0.623,0.694-0.828,1.042-0.828c0.347,0,0.623,0.275,0.828,0.828l10.666,27.423c1.382,3.251,4.081,1.87,4.081,3.046
			c0,0.623-0.341,0.69-1.523,0.69c-1.452,0-2.976-0.276-5.326-0.276c-3.329,0-5.127,0.276-5.957,0.276
			c-0.828,0-1.04-0.209-1.04-0.623c0-1.455,4.156-0.415,4.156-2.008c0-1.246-0.488-2.77-2.286-8.103l-0.482-1.522
			c-0.277-0.759-0.765-1.176-1.388-1.176H313.282z M319.79,30.364c0.418,0,0.553,0,0.553-0.206c0-0.347-0.135-0.97-0.693-2.563
			l-2.005-5.815c-0.07-0.275-0.205-0.553-0.418-0.553c-0.205,0-0.41,0.207-0.552,0.482l-2.352,6.023
			c-0.623,1.386-0.9,2.149-0.9,2.493c0,0.068,0.065,0.139,0.277,0.139H319.79z"/>
		<path d="M341.187,19.493c0-2.423-0.899-2.493-4.015-2.837c-0.624-0.068-0.83-0.209-0.83-0.762c0-0.418,0.482-0.765,1.381-0.765
			c1.247,0,3.464,0.279,6.233,0.279c3.321,0,5.539-0.279,9.554-0.279c4.986,0,10.107,2.216,10.107,8.449
			c0,6.232-4.703,10.318-9.76,10.318c-4.362,0-5.814-0.556-7.55-1.04v9.484c0,1.524,0.488,2.011,2.081,2.147
			c2.212,0.209,2.628,0.486,2.628,0.968c0,0.623-0.205,0.832-1.04,0.832c-2.281,0-3.945-0.276-6.297-0.276
			c-2.358,0-4.71,0.276-6.232,0.276c-0.765,0-1.105-0.209-1.105-0.761c0-0.971,1.24-0.9,2.423-1.039
			c1.246-0.137,2.422-0.346,2.422-1.937V19.493z M346.308,30.017c0,1.112,0.97,1.802,4.086,1.802c4.434,0,8.103-2.978,8.103-8.033
			c0-4.64-3.669-7.129-8.931-7.129c-2.563,0-3.258,0.623-3.258,2.284V30.017z"/>
		<path d="M373.795,32.857c-0.482,0-0.97,0.417-1.246,1.108l-1.522,3.601c-0.971,2.217-1.8,4.293-1.8,5.609
			c0,2.146,3.875,1.035,3.875,2.353c0,0.484-0.276,0.761-1.247,0.761c-1.035,0-1.658-0.276-4.915-0.276
			c-3.252,0-3.945,0.276-4.71,0.276c-0.553,0-0.758-0.209-0.758-0.553c0-1.384,3.251-0.624,4.498-3.395l12.394-27.212
			c0.277-0.623,0.693-0.828,1.041-0.828c0.347,0,0.623,0.275,0.829,0.828l10.666,27.423c1.381,3.251,4.079,1.87,4.079,3.046
			c0,0.623-0.34,0.69-1.521,0.69c-1.452,0-2.976-0.276-5.328-0.276c-3.328,0-5.127,0.276-5.956,0.276
			c-0.828,0-1.04-0.209-1.04-0.623c0-1.455,4.157-0.415,4.157-2.008c0-1.246-0.489-2.77-2.288-8.103l-0.481-1.522
			c-0.276-0.759-0.764-1.176-1.388-1.176H373.795z M380.304,30.364c0.418,0,0.553,0,0.553-0.206c0-0.347-0.135-0.97-0.694-2.563
			l-2.004-5.815c-0.07-0.275-0.206-0.553-0.418-0.553c-0.206,0-0.412,0.207-0.553,0.482l-2.352,6.023
			c-0.623,1.386-0.9,2.149-0.9,2.493c0,0.068,0.066,0.139,0.277,0.139H380.304z"/>
		<path d="M415.27,30.435c0,0.415,0.348,0.694,0.971,1.8l5.538,9.486c1.176,2.008,2.353,2.423,3.946,2.769
			c0.835,0.139,1.316,0.277,1.316,0.9c0,0.414-0.347,0.623-1.041,0.623c-1.522,0-5.051,0.276-6.367,0.276
			c-0.488,0-0.829-0.209-1.317-1.108l-6.715-12.048c-0.899-1.593-2.216-2.352-3.881-2.352c-1.586,0-2.146,0.553-2.146,2.076v9.555
			c0,1.246,0.623,1.94,2.081,2.077c2.146,0.209,2.905,0.416,2.905,1.109c0,0.552-0.277,0.69-1.381,0.69
			c-1.8,0-3.188-0.276-6.099-0.276c-3.321,0-4.979,0.276-6.785,0.276c-0.135,0-0.829-0.139-0.829-0.623
			c0-0.899,1.247-1.038,2.493-1.177c1.247-0.137,2.493-0.484,2.493-2.147V18.455c0-1.314-0.418-1.455-1.799-1.732
			c-1.112-0.205-2.218-0.066-2.218-0.758c0-0.693,0.348-0.835,1.247-0.835c1.316,0,3.394,0.279,6.232,0.279
			c3.181,0,5.886-0.279,7.892-0.279c5.955,0,9.277,3.325,9.277,7.479C421.085,29.534,415.27,29.327,415.27,30.435z M408.832,16.656
			c-2.77,0-3.258,0.344-3.258,1.246v10.245c0,1.111,0.56,1.387,3.605,1.387c4.914,0,7.195-2.286,7.195-6.231
			C416.375,18.94,413.606,16.656,408.832,16.656z"/>
		<path d="M446.914,41.441c0,2.146,1.522,2.911,3.045,3.048c1.523,0.139,3.046,0.209,3.046,1.109c0,0.623-0.693,0.69-1.105,0.69
			c-2.493,0-4.914-0.276-7.407-0.276s-4.916,0.276-7.409,0.276c-0.559,0-0.97-0.276-0.97-0.761c0-0.9,1.452-0.9,2.84-1.039
			c1.451-0.137,2.834-0.902,2.834-3.048V22.471c0-4.639-0.482-4.983-3.046-4.983c-8.585,0-8.308,5.539-10.036,5.539
			c-0.694,0-0.765-0.276-0.765-0.694c0-0.553,0.348-1.246,1.665-5.121c1.104-3.462,1.381-3.88,2.004-3.88
			c0.765,0,1.458,2.634,3.533,2.634h17.728c1.382,0,3.804-0.141,5.121-0.835c0.899-0.411,0.899-1.381,1.522-1.381
			c0.693,0,0.553,0.828,0.553,4.362c0,3.875-0.553,4.498-1.105,4.498c-0.765,0-0.694-0.971-1.452-2.629
			c-0.693-1.454-1.94-2.493-6.374-2.493c-3.81,0-4.221,0.345-4.221,4.983V41.441z"/>
	</g>
</g>
<circle fill="#E9E6D4" cx="30.227" cy="30.227" r="30.227"/>
<path fill="#9A8E51" d="M53.736,2.752c0.005,0.016,0.008,0.029,0.01,0.047c0.1,0.674-0.166,1.359-0.336,2.002
	c-0.276,1.053-0.69,2.016-1.047,3.037c-0.65,1.867-1.243,3.762-2.072,5.559c-0.228,0.496-0.474,0.98-0.739,1.457
	c-0.212,0.377-0.433,0.75-0.646,1.127c-0.489,0.863-0.971,1.74-1.569,2.533c-0.597,0.791-1.353,1.436-2.021,2.162
	c-1.029,1.117-2.161,1.836-3.492,2.543c-0.643,0.342-1.257,0.734-1.863,1.135c-0.549,0.361-1.141,0.777-1.83,0.746
	c-0.422-0.018-0.107-2.834-0.091-3.172c0.065-1.309-0.027-2.695,0.325-3.969c0.25-0.906,0.318-1.869,0.738-2.723
	c0.367-0.744,0.738-1.49,1.23-2.16c0.464-0.631,1.037-1.174,1.61-1.705c1.647-1.521,3.501-2.801,5.247-4.203
	c0.523-0.422,1.049-0.844,1.599-1.229c1.421-0.996,2.583-2.451,4.112-3.287C53.093,2.549,53.643,2.412,53.736,2.752z"/>
<path fill="#9A8E51" d="M30.015,13.273c0.438,1.344,0.958,2.666,1.253,4.053c0.297,1.406,0.35,2.877,0.393,4.309
	c0.027,0.85,0.031,1.699,0.003,2.549c-0.028,0.848-0.146,1.688-0.304,2.52c-0.078,0.414-0.168,0.824-0.262,1.234
	c-0.059,0.252-0.076,0.508-0.168,0.752c-0.205,0.549-0.314,1.188-0.51,1.742c-0.301,0.857-0.662,1.672-1.099,2.474
	c-0.46,0.845-0.969,1.626-1.558,2.387c-0.749,0.967-1.347,1.968-1.984,3.004c-0.16,0.259-0.588,1.015-0.965,0.942
	c-0.217-0.041-0.26-0.415-0.325-0.576c-0.256-0.639-0.525-1.275-0.785-1.914c-0.255-0.625-0.588-1.214-0.845-1.839
	c-0.32-0.785-0.537-1.595-0.772-2.408c-0.179-0.616-0.354-1.235-0.461-1.868c-0.218-1.299-0.05-2.799,0.305-4.061
	c0.226-0.801,0.55-1.574,0.874-2.34c0.872-2.051,1.844-4.037,2.834-6.033c0.474-0.953,0.893-1.932,1.389-2.873
	c0.479-0.91,1.006-1.793,1.469-2.711c0.157-0.314,0.377-0.842,0.803-0.832c0.379,0.008,0.465,0.484,0.523,0.773
	C29.871,12.799,29.938,13.037,30.015,13.273z"/>
<path fill="#9A8E51" d="M26.111,43.009c1.788,0.089,3.564,0.327,5.344,0.518c1.107,0.118,2.223,0.115,3.334,0.129
	c0.391,0.005,2.373-0.223,2.336,0.428c-0.027,0.463-0.753,0.857-1.094,1.06c-0.592,0.352-1.229,0.621-1.85,0.918
	c-0.834,0.397-1.668,0.795-2.504,1.189c-0.938,0.441-1.877,0.882-2.823,1.304c-0.531,0.237-1.064,0.47-1.602,0.692
	c-0.454,0.188-0.913,0.364-1.38,0.517c-1.957,0.638-3.938,0.736-5.955,0.338c-1.758-0.348-3.551-0.743-5.096-1.685
	c-0.287-0.175-0.582-0.334-0.877-0.492c-0.244-0.129-0.58-0.242-0.766-0.456c-0.271-0.312,0.049-0.632,0.326-0.785
	c0.441-0.245,0.855-0.527,1.285-0.792c0.91-0.562,1.797-1.152,2.737-1.665c0.534-0.29,1.096-0.538,1.67-0.737
	c1.037-0.36,2.112-0.597,3.212-0.63c1.096-0.033,2.191,0.095,3.286,0.133C25.835,42.996,25.973,43.002,26.111,43.009z"/>
<path fill="#9A8E51" d="M54.638,23.648c-0.306,1.406-1.409,2.438-2.417,3.379c-1.119,1.047-2.113,2.199-3.195,3.281
	c-1.18,1.178-2.32,2.383-3.689,3.349c-1.238,0.874-2.604,1.564-4.001,2.146c-0.799,0.333-1.612,0.633-2.429,0.918
	c-1.598,0.557-3.092,1.019-4.778,1.241c-0.829,0.109-1.655,0.253-2.485,0.36c-0.518,0.067-1.293,0.215-1.641-0.3
	c-0.586-0.87,0.625-1.994,1.16-2.555c0.918-0.96,1.822-1.932,2.762-2.871c1.9-1.902,4.17-3.914,6.506-5.268
	c1.307-0.756,2.734-1.262,4.148-1.77c2.84-1.021,5.723-2.008,8.684-2.619c0.363-0.074,0.906-0.205,1.222,0.064
	C54.675,23.168,54.69,23.406,54.638,23.648z"/>
</svg>
