<?xml version="1.0" encoding="utf-8"?>
<!-- Generator: Adobe Illustrator 15.0.2, SVG Export Plug-In  -->
<!DOCTYPE svg PUBLIC "-//W3C//DTD SVG 1.1//EN" "http://www.w3.org/Graphics/SVG/1.1/DTD/svg11.dtd" [
	<!ENTITY ns_flows "http://ns.adobe.com/Flows/1.0/">
]>
<svg version="1.1"
	 xmlns="http://www.w3.org/2000/svg" xmlns:xlink="http://www.w3.org/1999/xlink" xmlns:a="http://ns.adobe.com/AdobeSVGViewerExtensions/3.0/"
	 x="0px" y="0px" width="50px" height="50px" viewBox="0 0 50 50" overflow="visible" enable-background="new 0 0 50 50"
	 xml:space="preserve">
<defs>
</defs>
<path fill="#FFFFFF" d="M24.999,0C11.19,0,0,11.191,0,24.999C0,38.804,11.19,50,24.999,50C38.807,50,50,38.804,50,24.999
	C50.002,11.191,38.809,0,24.999,0z M39.78,35.174c-0.424,1.246-2.089,1.684-3.558,2.068c-0.316,0.083-0.62,0.161-0.882,0.242
	c-2.46,0.773-4.837,1.575-7.237,2.384c-1.212,0.41-2.433,0.82-3.672,1.23c-0.753,0.25-1.638,0.545-2.334,0.545
	c-0.167,0-0.314-0.018-0.451-0.05c-1.195-0.272-1.777-1.946-2.202-3.17c-0.96-2.755-1.821-5.417-2.675-8.056
	c-0.946-2.924-1.924-5.949-2.954-8.833c-0.171-0.475-0.344-0.944-0.521-1.416c-0.629-1.69-1.278-3.442-1.692-5.439l-0.064-0.309
	l0.178-0.261c0.636-0.921,1.779-1.309,2.886-1.684l0.28-0.095c0.204-0.069,0.444-0.161,0.707-0.259
	c1.009-0.38,2.155-0.811,2.967-0.811l0.178,0.007c1.821,0.158,2.491,2.603,2.979,4.388c0.09,0.329,0.174,0.639,0.257,0.904
	c0.604,1.907,1.17,3.767,1.731,5.602c0.58,1.906,1.153,3.784,1.748,5.658l0.344,1.104c0.393,1.278,0.8,2.593,1.27,3.648
	c2.547-0.659,4.809-1.419,7.398-2.285l0.219-0.074c0.161-0.055,0.356-0.134,0.57-0.223c0.811-0.334,1.892-0.735,2.646-0.544
	c1.011,0.26,1.295,1.507,1.504,2.418l0.056,0.238c0.044,0.187,0.095,0.373,0.147,0.562C39.819,33.444,40.064,34.327,39.78,35.174z"
	/>
</svg>
