<?xml version="1.0" encoding="utf-8"?>
<!-- Generator: Adobe Illustrator 15.0.2, SVG Export Plug-In  -->
<!DOCTYPE svg PUBLIC "-//W3C//DTD SVG 1.1//EN" "http://www.w3.org/Graphics/SVG/1.1/DTD/svg11.dtd" [
	<!ENTITY ns_flows "http://ns.adobe.com/Flows/1.0/">
]>
<svg version="1.1"
	 xmlns="http://www.w3.org/2000/svg" xmlns:xlink="http://www.w3.org/1999/xlink" xmlns:a="http://ns.adobe.com/AdobeSVGViewerExtensions/3.0/"
	 x="0px" y="0px" width="50px" height="50px" viewBox="0 0 50 50" overflow="visible" enable-background="new 0 0 50 50"
	 xml:space="preserve">
<defs>
</defs>
<path fill="#FFFFFF" d="M25,0C11.194,0,0,11.194,0,25c0,13.806,11.194,25,25,25c12.59,0,22.999-9.307,24.739-21.414
	c0.168-0.824,0.247-1.675,0.233-2.554C49.99,25.691,50,25.348,50,25C50,11.194,38.81,0,25,0z M36.507,20.464
	c0.011,0.233,0.014,0.465,0.014,0.698c0,7.139-5.43,15.369-15.363,15.369c-3.052,0-5.889-0.895-8.279-2.43
	c0.422,0.051,0.851,0.075,1.287,0.075c2.529,0,4.858-0.862,6.709-2.313c-2.363-0.039-4.359-1.604-5.049-3.748
	c0.331,0.065,0.673,0.1,1.019,0.1c0.49,0,0.969-0.068,1.424-0.19c-2.473-0.495-4.335-2.679-4.335-5.294c0-0.029,0-0.048,0-0.068
	c0.729,0.4,1.563,0.647,2.448,0.674c-1.45-0.971-2.404-2.622-2.404-4.495c0-0.991,0.266-1.917,0.732-2.718
	c2.663,3.27,6.644,5.417,11.133,5.645c-0.092-0.395-0.14-0.811-0.14-1.232c0-2.983,2.419-5.401,5.403-5.401
	c1.553,0,2.954,0.657,3.939,1.708c1.233-0.244,2.388-0.691,3.433-1.312c-0.402,1.26-1.26,2.317-2.376,2.987
	c1.095-0.126,2.137-0.419,3.102-0.848C38.476,18.751,37.563,19.701,36.507,20.464z"/>
</svg>
