<?xml version="1.0" encoding="utf-8"?>
<!-- Generator: Adobe Illustrator 15.0.2, SVG Export Plug-In  -->
<!DOCTYPE svg PUBLIC "-//W3C//DTD SVG 1.1//EN" "http://www.w3.org/Graphics/SVG/1.1/DTD/svg11.dtd" [
	<!ENTITY ns_flows "http://ns.adobe.com/Flows/1.0/">
]>
<svg version="1.1"
	 xmlns="http://www.w3.org/2000/svg" xmlns:xlink="http://www.w3.org/1999/xlink" xmlns:a="http://ns.adobe.com/AdobeSVGViewerExtensions/3.0/"
	 x="0px" y="0px" width="283px" height="77px" viewBox="-20 -18 283 77" overflow="visible" enable-background="new -20 -18 283 77"
	 xml:space="preserve">
<defs>
</defs>
<path fill-rule="evenodd" clip-rule="evenodd" d="M0,21.963c0,11.551,8.804,21.854,22.728,21.854
	c14.423,0,23.04-10.365,23.04-21.854c0-11.865-8.866-21.855-22.915-21.855C9.053,0.108,0,10.161,0,21.963L0,21.963z M6.306,21.963
	c0-9.367,7.056-16.235,16.546-16.235c9.553,0,16.608,6.868,16.608,16.235c0,9.303-7.056,16.232-16.608,16.232
	C13.362,38.195,6.306,31.266,6.306,21.963L6.306,21.963z"/>
<path fill="#CE1141" d="M50.265,17.591c5.807-0.937,7.556-3.934,7.556-9.491V0.67h-7.556v8.117h3.996
	c0.188,3.809-1.311,5.557-3.996,5.932V17.591L50.265,17.591z"/>
<path fill-rule="evenodd" clip-rule="evenodd" d="M64.229,0.67v42.584h6.119V24.771h2.56c3.122,0,5.682,1,11.301,9.74l5.619,8.742
	h7.306c-2.935-4.059-3.996-5.494-5.807-8.43c-3.247-5.307-5.62-9.24-9.491-11.801c4.558-1.811,7.118-5.495,7.118-10.428
	c0-7.368-5.37-11.926-13.986-11.926H64.229L64.229,0.67z M70.349,5.915h3.934c5.932,0,8.304,2.435,8.367,6.431
	c0.062,3.559-1.811,6.931-8.367,6.931h-3.934V5.915L70.349,5.915z"/>
<polygon points="124.184,0.67 100.02,0.67 100.02,43.254 124.745,43.254 124.745,37.76 106.139,37.76 106.139,24.521 123.56,24.521 
	123.56,19.027 106.139,19.027 106.139,6.165 124.184,6.165 124.184,0.67 "/>
<polygon points="136.699,0.67 130.58,0.67 130.58,43.254 136.699,43.254 136.699,0.67 "/>
<polygon points="149.073,0.67 142.954,0.67 142.954,43.254 168.305,43.254 168.305,37.76 149.073,37.76 149.073,0.67 "/>
<polygon points="178.445,0.67 172.326,0.67 172.326,43.254 197.677,43.254 197.677,37.76 178.445,37.76 178.445,0.67 "/>
<polygon points="209.553,15.055 198.126,0.382 190.759,0.382 206.556,20.425 206.556,42.965 212.675,42.965 212.675,20.487 
	228.472,0.382 221.104,0.382 209.553,15.055 "/>
<path fill-rule="evenodd" clip-rule="evenodd" d="M238.48,0c-3.676,0-6.754,2.97-6.754,6.737c0,3.73,3.024,6.754,6.754,6.754
	c3.731,0,6.755-3.024,6.755-6.754C245.235,2.97,242.176,0,238.48,0L238.48,0z M238.48,1.304c2.988,0,5.451,2.391,5.451,5.433
	c0,3.006-2.427,5.451-5.451,5.451c-3.006,0-5.45-2.445-5.45-5.451C233.03,3.694,235.511,1.304,238.48,1.304L238.48,1.304z
	 M235.421,3.133v7.226h1.793V7.479c0.217-0.018,0.488,0.054,0.633,0.127c0.345,0.199,0.888,1.123,1.685,2.752h2.119l-0.67-1.231
	c-0.508-0.923-0.797-1.521-1.685-1.938c0.67-0.127,1.956-0.543,1.956-2.01c0-1.503-1.142-2.046-2.608-2.046H235.421L235.421,3.133z
	 M237.214,4.382h0.851c0.778,0,1.34,0.29,1.34,0.906c0,0.688-0.562,0.905-1.412,0.905h-0.778V4.382L237.214,4.382z"/>
</svg>
